<?xml version="1.0" encoding="utf-8"?>
<!-- Generator: Adobe Illustrator 12.0.0, SVG Export Plug-In . SVG Version: 6.00 Build 51448)  -->
<!DOCTYPE svg PUBLIC "-//W3C//DTD SVG 1.1//EN" "http://www.w3.org/Graphics/SVG/1.1/DTD/svg11.dtd" [
	<!ENTITY ns_svg "http://www.w3.org/2000/svg">
	<!ENTITY ns_xlink "http://www.w3.org/1999/xlink">
]>
<svg  version="1.1" id="Layer_1" xmlns="&ns_svg;" xmlns:xlink="&ns_xlink;" width="534.144" height="196.807"
	 viewBox="0 0 534.144 196.807" overflow="visible" enable-background="new 0 0 534.144 196.807" xml:space="preserve">
<g>
	<g>
		<g>
			<path fill="#010101" d="M50.501,30.05c-7.174,0-13.009-5.994-13.009-13.362S43.327,3.326,50.501,3.326
				c7.173,0,13.008,5.994,13.008,13.362S57.674,30.05,50.501,30.05z M50.501,6.138c-5.623,0-10.196,4.733-10.196,10.55
				s4.574,10.55,10.196,10.55c5.622,0,10.195-4.733,10.195-10.55S56.123,6.138,50.501,6.138z"/>
			<path fill="#010101" d="M68.959,51.363H32.042c-0.776,0-1.406-0.63-1.406-1.406v-7.906c0-7.723,4.869-14.703,12.116-17.367
				c0.47-0.172,0.996-0.083,1.382,0.237c1.829,1.515,4.029,2.317,6.366,2.317s4.538-0.802,6.366-2.317
				c0.386-0.32,0.913-0.41,1.382-0.237c7.247,2.664,12.116,9.643,12.116,17.367v7.906C70.365,50.733,69.735,51.363,68.959,51.363z
				 M33.448,48.551h34.104v-6.5c0-6.293-3.812-12.003-9.561-14.444c-2.185,1.582-4.814,2.444-7.491,2.444
				c-2.678,0-5.306-0.862-7.492-2.444c-5.749,2.441-9.561,8.151-9.561,14.444V48.551z"/>
		</g>
	</g>
</g>
<g>
	<path fill="#010101" d="M273.49,38.154c0,3.883,3.148,7.031,7.031,7.031s7.032-3.148,7.032-7.031s-3.149-7.031-7.032-7.031
		C276.639,31.126,273.494,34.273,273.49,38.154z M275.833,38.154c0-2.589,2.099-4.688,4.688-4.688s4.688,2.099,4.688,4.688
		s-2.099,4.688-4.688,4.688C277.933,42.838,275.836,40.742,275.833,38.154z"/>
	<path fill="#010101" d="M232.474,38.154c0,3.883,3.148,7.031,7.031,7.031s7.031-3.148,7.031-7.031s-3.148-7.031-7.031-7.031
		C235.624,31.126,232.478,34.273,232.474,38.154z M234.817,38.154c0-2.589,2.099-4.688,4.688-4.688s4.688,2.099,4.688,4.688
		s-2.099,4.688-4.688,4.688C236.917,42.838,234.82,40.742,234.817,38.154z"/>
	<path fill="#010101" d="M258.255,22.919h13.477c0.262,0,0.516-0.088,0.723-0.249c0.51-0.399,0.599-1.136,0.199-1.646
		c-0.516-0.659-5.17-6.422-8.854-6.306l-5.545-0.001c-0.647,0-1.172,0.524-1.172,1.172v5.857
		C257.083,22.395,257.608,22.919,258.255,22.919z M259.427,17.062h4.412c1.365-0.041,3.543,1.686,5.31,3.514h-9.722V17.062z"/>
	<path fill="#010101" d="M253.568,22.919c0.647,0,1.171-0.524,1.172-1.172v-5.859c0-0.646-0.525-1.172-1.172-1.172h-4.519
		c-2.368,0-4.278,0.755-5.525,2.181c-0.334,0.383-0.659,0.773-0.982,1.163c-0.782,1.008-1.657,1.94-2.612,2.785
		c-0.269,0.223-0.425,0.554-0.424,0.903c0,0.646,0.525,1.171,1.172,1.171H253.568z M252.396,20.576h-8.907
		c0.293-0.339,0.576-0.681,0.856-1.019c0.311-0.375,0.622-0.75,0.944-1.118c0.996-1.14,2.594-1.379,3.76-1.379h3.347V20.576z"/>
	<path fill="#010101" d="M248.88,36.982c0.107,0.777,0.107,1.566,0,2.344h22.266c-0.107-0.777-0.107-1.566,0-2.344H248.88z"/>
	<path fill="#010101" d="M223.88,38.525c0.16,0.479,0.607,0.801,1.112,0.801h5.219c-0.108-0.777-0.108-1.566,0-2.344h-4.183
		c0.034-0.699,0.139-1.393,0.312-2.071c0.667-1.976,1.011-4.046,1.019-6.132h1.013c0.001,0,0.002,0,0.003,0
		c0.647-0.001,1.171-0.526,1.17-1.173c-0.001-0.647-0.526-1.172-1.173-1.171h-1c-0.022-1.022-0.075-1.792-0.097-2.083
		c0.16-1.03,1.686-1.329,3.81-1.636c0.9-0.09,1.788-0.282,2.643-0.575c2.989-1.322,5.524-3.493,7.29-6.244
		c2.348-3.573,6.789-3.523,6.838-3.524h17.33c3.337,0.281,7.167,4.065,8.366,5.506c0.024,0.029,0.05,0.057,0.077,0.084
		c3.367,3.25,7.701,5.317,12.347,5.888c4.203,0.338,7.77,1.77,8.959,2.679c0.777,0.599,1.277,1.488,1.386,2.463
		c0.001,0.291,0.011,1.662,0.016,3.303h-1.167c-0.647,0-1.172,0.525-1.172,1.172c0,0.647,0.524,1.172,1.172,1.172h1.172
		c0,0.835-0.002,1.646-0.008,2.344h-6.52c0.109,0.777,0.109,1.566,0,2.344h7.678c0.639,0,1.16-0.512,1.172-1.15
		c0.021-1.108,0.023-2.949,0.021-4.698l0.001-0.011l-0.001-0.011c-0.005-2.271-0.02-4.384-0.021-4.537
		c0-0.035-0.002-0.07-0.006-0.105c-0.16-1.641-0.992-3.143-2.3-4.147c-1.696-1.296-5.743-2.794-10.195-3.151
		c-4.07-0.543-7.867-2.356-10.849-5.181c-0.509-0.6-5.161-5.937-9.994-6.301c-0.029-0.003-0.06-0.004-0.089-0.004H247.88
		c-0.205-0.001-5.77-0.062-8.821,4.581c-1.503,2.357-3.666,4.223-6.219,5.362c-0.68,0.212-1.379,0.354-2.088,0.424
		c-2.215,0.319-5.563,0.803-5.821,3.838c-0.005,0.065-0.005,0.133,0,0.198c0.005,0.064,0.534,6.474-0.787,9.657
		c-0.019,0.047-0.036,0.095-0.049,0.144C223.973,34.689,223.385,37.039,223.88,38.525z"/>
</g>
<g>
	<path fill="#010101" d="M465.14,54.451c0,0.518,0.42,0.938,0.938,0.938h37.5c0.519,0,0.938-0.42,0.938-0.938v-6.563
		c0-3.619-2.944-6.563-6.563-6.563h-6.563h-0.938v-4.335c0.324-0.188,0.636-0.391,0.938-0.609v0.257h3.75
		c0.378,0,0.721-0.228,0.865-0.577l3.048-7.314c1.137-2.727,1.712-5.607,1.712-8.56v-0.424c0-4.115-1.565-7.976-4.394-10.951
		l1.549-5.677c0.066-0.247,0.03-0.509-0.101-0.728c-0.131-0.219-0.345-0.375-0.595-0.432l-4.851-1.121
		c-4.937-1.139-10.156-1.139-15.094,0l-4.852,1.12c-0.249,0.058-0.463,0.213-0.594,0.432c-0.132,0.218-0.166,0.481-0.1,0.728
		l1.582,5.803c-2.811,3.047-4.428,7.106-4.428,11.25c0,2.953,0.576,5.833,1.712,8.56l3.048,7.314
		c0.146,0.349,0.488,0.577,0.865,0.577h3.75v-0.256c0.303,0.217,0.614,0.421,0.938,0.609v4.334h-0.938h-6.563
		c-3.617,0-6.563,2.944-6.563,6.563V54.451L465.14,54.451z M502.64,47.888v5.625h-16.875v-5.848l3.029,3.636
		c0.267,0.32,0.711,0.424,1.09,0.262l1.392-0.597c3.195-1.369,5.331-4.356,5.67-7.764h1.008
		C500.537,43.201,502.64,45.303,502.64,47.888z M477.576,43.571c0.022,0.059,0.037,0.122,0.063,0.18
		c0.09,0.206,0.196,0.404,0.32,0.589c0.027,0.042,0.063,0.077,0.091,0.117c0.103,0.142,0.212,0.277,0.332,0.402
		c0.056,0.057,0.115,0.107,0.174,0.161c0.107,0.098,0.218,0.192,0.336,0.277c0.069,0.051,0.141,0.097,0.215,0.142
		c0.12,0.075,0.245,0.143,0.375,0.203c0.076,0.037,0.153,0.073,0.232,0.105c0.144,0.056,0.292,0.099,0.443,0.137
		c0.074,0.019,0.143,0.042,0.218,0.056c0.229,0.044,0.462,0.071,0.702,0.071h1.749l-2.959,3.551l-0.751-0.321
		c-2.503-1.073-4.203-3.386-4.532-6.042h2.862C477.479,43.329,477.53,43.449,477.576,43.571z M489.28,45.942
		c0.074-0.014,0.145-0.039,0.218-0.056c0.151-0.039,0.3-0.082,0.443-0.138c0.08-0.032,0.157-0.068,0.233-0.105
		c0.13-0.062,0.255-0.128,0.375-0.204c0.073-0.046,0.145-0.092,0.215-0.142c0.118-0.085,0.229-0.179,0.336-0.277
		c0.058-0.054,0.119-0.103,0.174-0.161c0.12-0.125,0.229-0.261,0.331-0.402c0.029-0.041,0.063-0.076,0.091-0.117
		c0.124-0.186,0.23-0.383,0.321-0.59c0.025-0.058,0.04-0.12,0.063-0.18c0.046-0.122,0.097-0.243,0.129-0.371h2.862
		c-0.329,2.656-2.028,4.969-4.531,6.042l-0.751,0.321l-2.96-3.55h1.748C488.818,46.013,489.052,45.986,489.28,45.942z
		 M488.137,36.024c-0.052,0.02-0.104,0.039-0.156,0.057c-0.292,0.104-0.587,0.194-0.885,0.269c-0.048,0.012-0.095,0.025-0.143,0.037
		c-0.332,0.078-0.667,0.137-1.003,0.178c-0.012,0.002-0.023,0.004-0.035,0.005c-0.722,0.084-1.452,0.084-2.174,0
		c-0.012-0.001-0.022-0.004-0.035-0.005c-0.337-0.041-0.671-0.102-1.003-0.178c-0.048-0.011-0.095-0.024-0.143-0.037
		c-0.298-0.075-0.594-0.164-0.886-0.269c-0.052-0.019-0.104-0.038-0.156-0.057c-0.303-0.114-0.601-0.245-0.894-0.392
		c-3.063-1.545-5.173-4.712-5.173-8.369v-4.688h6.653c2.552,0,4.771-1.706,5.432-4.162l1.008-2.069l1.248,2.766
		c0.541,2.006,2.334,3.404,4.409,3.456v4.697c0,3.657-2.11,6.824-5.172,8.368C488.738,35.778,488.439,35.909,488.137,36.024z
		 M477.701,2.682c4.661-1.076,9.588-1.076,14.251,0l3.901,0.9l-2.308,8.457c-0.715-0.193-1.435-0.362-2.158-0.506
		c-4.336-0.868-8.786-0.868-13.123,0c-0.723,0.145-1.442,0.313-2.158,0.506l-0.846-3.105l0,0L473.8,3.581L477.701,2.682z
		 M472.333,28.026c-1.04-2.497-1.568-5.135-1.568-7.839c0-3.277,1.131-6.504,3.145-9.08l0.639,2.34
		c0.066,0.244,0.229,0.45,0.449,0.573c0.222,0.122,0.483,0.15,0.724,0.078c5.958-1.787,12.253-1.787,18.212,0
		c0.089,0.027,0.179,0.041,0.27,0.041c0.022,0,0.045-0.007,0.068-0.008c0.023-0.002,0.046-0.006,0.069-0.009
		c0.109-0.016,0.218-0.045,0.318-0.1c0.221-0.123,0.383-0.329,0.449-0.573l0.679-2.488c2.012,2.49,3.104,5.561,3.104,8.803v0.424
		c0,2.705-0.528,5.342-1.567,7.839l-2.809,6.737h-1.325c1.789-1.993,2.888-4.617,2.888-7.5v-4.688h0.938v-1.875h-2.697
		c-1.293,0-2.414-0.876-2.729-2.13c-0.014-0.054-0.031-0.107-0.056-0.158l-2.102-4.659c-0.149-0.332-0.478-0.546-0.84-0.552
		c-0.381,0.001-0.697,0.199-0.856,0.527l-1.925,3.95c-0.028,0.059-0.051,0.12-0.066,0.183c-0.419,1.672-1.915,2.84-3.639,2.84
		h-9.465v1.875h0.938v4.688c0,2.883,1.099,5.507,2.888,7.5h-1.325L472.333,28.026z M481.765,38.078
		c0.167,0.048,0.334,0.09,0.503,0.129c0.164,0.039,0.328,0.076,0.495,0.107c0.188,0.035,0.377,0.061,0.566,0.086
		c0.155,0.021,0.309,0.045,0.467,0.06c0.262,0.024,0.524,0.035,0.788,0.041c0.081,0.002,0.161,0.012,0.244,0.012
		c0.082,0,0.162-0.01,0.243-0.012c0.264-0.006,0.526-0.016,0.789-0.041c0.157-0.014,0.311-0.039,0.467-0.06
		c0.189-0.025,0.378-0.051,0.565-0.086c0.167-0.031,0.331-0.068,0.495-0.107c0.169-0.039,0.336-0.082,0.503-0.129
		c0.177-0.05,0.351-0.104,0.523-0.162c0.054-0.019,0.109-0.031,0.163-0.05v4.397c0,0.518,0.419,0.938,0.938,0.938h0.677
		c-0.008,0.013-0.014,0.027-0.022,0.042c-0.072,0.117-0.154,0.227-0.249,0.325c-0.006,0.005-0.01,0.013-0.017,0.019
		c-0.101,0.103-0.217,0.188-0.34,0.264c-0.036,0.023-0.074,0.042-0.111,0.061c-0.096,0.051-0.195,0.093-0.299,0.127
		c-0.042,0.014-0.083,0.028-0.126,0.039c-0.144,0.036-0.293,0.061-0.449,0.061h-7.5c-0.157,0-0.306-0.025-0.451-0.061
		c-0.043-0.01-0.084-0.025-0.127-0.039c-0.104-0.034-0.203-0.076-0.298-0.127c-0.037-0.02-0.076-0.038-0.111-0.061
		c-0.123-0.077-0.238-0.163-0.341-0.264c-0.005-0.005-0.01-0.013-0.016-0.019c-0.096-0.099-0.177-0.208-0.249-0.325
		c-0.009-0.013-0.015-0.027-0.022-0.042h0.678c0.519,0,0.938-0.42,0.938-0.938v-4.397c0.054,0.02,0.109,0.032,0.163,0.051
		C481.414,37.975,481.589,38.028,481.765,38.078z M467.015,47.888c0-2.585,2.104-4.688,4.688-4.688h1.007
		c0.339,3.408,2.475,6.396,5.67,7.764l1.392,0.597c0.119,0.051,0.245,0.076,0.369,0.076c0.272,0,0.538-0.118,0.722-0.337
		l3.028-3.636v5.848h-16.874L467.015,47.888L467.015,47.888z"/>
	<polygon fill="#010101" points="483.89,9.451 485.765,9.451 485.765,7.576 487.64,7.576 487.64,5.701 485.765,5.701 485.765,3.826 
		483.89,3.826 483.89,5.701 482.015,5.701 482.015,7.576 483.89,7.576 	"/>
	<g>
		<path fill="#010101" d="M449.955,16.718l2.203,3.816c-0.075,0.059-0.149,0.123-0.224,0.195c-0.253,0.246-0.317,0.544-0.172,0.796
			l0.319,0.553c-0.146,0.121-0.287,0.245-0.417,0.376c-0.484,0.49-0.607,1.009-0.348,1.459l7.738,13.401l-1.225,0.708l0.262,0.453
			l2.216-1.279l0.472,0.816c0.014,0.023,0.027,0.048,0.043,0.073l0.942,1.632l-1.103,0.637l0.526,0.911l0.19-0.047
			c1.723-0.42,3.236-1.294,4.498-2.596l0.138-0.143l-0.526-0.912l-1.065,0.615l-1.456-2.522l2.216-1.28l-0.262-0.453l-1.225,0.707
			l-7.737-13.402c-0.189-0.328-0.522-0.508-0.939-0.508c-0.164,0-0.336,0.028-0.511,0.083c-0.178,0.056-0.348,0.118-0.516,0.182
			l-0.326-0.565c-0.091-0.158-0.305-0.346-0.757-0.253c-0.103,0.021-0.203,0.055-0.302,0.097l-2.201-3.812L449.955,16.718z
			 M461.378,40.547l0.649-0.375v0.001l1.271-0.734l1.999-1.154l0.065,0.115c-1.117,1.105-2.434,1.867-3.918,2.264L461.378,40.547z
			 M460.763,36.935l1.751-1.011l1.456,2.522l-1.751,1.012l-1.08-1.872c-0.001-0.001-0.002-0.003-0.003-0.004L460.763,36.935z
			 M452.038,22.822c0.275-0.28,0.589-0.528,0.938-0.749l0.417-0.241c0.384-0.202,0.805-0.377,1.273-0.524
			c0.124-0.039,0.243-0.059,0.354-0.059c0.228,0,0.391,0.083,0.485,0.247l7.734,13.397l-3.734,2.156l-1.679-2.906l2.144-1.238
			l-0.262-0.453l-2.144,1.237l-1.054-1.824l2.144-1.237l-0.262-0.454l-2.144,1.237l-1.031-1.787l2.143-1.237l-0.262-0.454
			l-2.143,1.237l-1.011-1.75l2.144-1.237l-0.262-0.454l-2.145,1.237l-1.042-1.806l2.143-1.237l-0.262-0.454l-2.143,1.238
			l-0.608-1.054C451.636,23.418,451.726,23.139,452.038,22.822z M452.784,21.579l-0.29,0.167l-0.279-0.483
			c-0.022-0.039,0.042-0.118,0.084-0.159c0.239-0.233,0.474-0.371,0.717-0.42c0.052-0.011,0.096-0.016,0.13-0.016
			c0.059,0,0.065,0.013,0.069,0.019l0.279,0.483l-0.433,0.25C452.967,21.471,452.875,21.524,452.784,21.579z"/>
		<path fill="#010101" d="M445.853,15.486c-0.026,0.618,0.384,1.086,0.997,1.138c0.03,0.002,0.06,0.004,0.089,0.004
			c0.349,0,0.624-0.17,0.891-0.334c0.271-0.167,0.528-0.325,0.871-0.325c0.303,0,0.644,0.123,1.042,0.375
			c0.103,0.064,0.234,0.051,0.321-0.032c0.087-0.083,0.105-0.215,0.046-0.319c-0.901-1.562-2.229-1.904-2.665-1.904
			C446.449,14.088,445.881,14.808,445.853,15.486z M446.375,15.508c0.016-0.36,0.313-0.896,1.069-0.896
			c0.01,0,0.845,0.045,1.644,0.877c-0.133-0.029-0.262-0.043-0.388-0.043c-0.491,0-0.854,0.223-1.146,0.403
			c-0.239,0.147-0.44,0.273-0.66,0.254C446.392,16.06,446.37,15.637,446.375,15.508z"/>
	</g>
</g>
<g>
	<g>
		<path fill="#010101" d="M50.34,166.24c6.059,0,11.297-3.539,13.793-8.637h6.363v-6.727c0-11.121-9.047-20.168-20.156-20.168
			s-20.168,9.047-20.168,20.168v0.961h4.852C35.528,159.854,42.196,166.24,50.34,166.24z M62.879,155.67h-7.02
			c-0.375-1.641-1.84-2.883-3.598-2.883c-2.039,0-3.691,1.652-3.691,3.691s1.652,3.691,3.691,3.691c1.652,0,3.035-1.09,3.504-2.59
			h6.199c-2.332,4.008-6.656,6.727-11.625,6.727c-7.406,0-13.441-6.035-13.441-13.441s6.023-13.43,13.441-13.43
			s13.441,6.035,13.441,13.441C63.782,152.564,63.454,154.182,62.879,155.67z M54.032,156.49c0,0.984-0.797,1.77-1.77,1.77
			s-1.77-0.797-1.77-1.77s0.797-1.77,1.77-1.77S54.032,155.506,54.032,156.49z M50.34,132.631c10.055,0,18.246,8.18,18.246,18.246
			v4.805H64.93c0.504-1.512,0.773-3.129,0.773-4.805c0-8.473-6.891-15.363-15.363-15.363c-8.145,0-14.813,6.375-15.316,14.402
			h-2.906C32.622,140.295,40.602,132.631,50.34,132.631z"/>
		<path fill="#010101" d="M64.227,164.131c0,0-5.297,5.953-13.887,5.953c-8.52,0-13.887-5.953-13.887-5.953
			s-15.879,6.41-15.879,26.109h59.531C80.399,170.74,64.227,164.131,64.227,164.131z M22.508,188.318
			c0.328-9.211,5.461-17.461,13.605-21.855c3.902,3.574,8.93,5.531,14.227,5.531s10.313-1.957,14.227-5.531
			c8.133,4.395,13.266,12.645,13.605,21.855H22.508z"/>
		<rect x="49.379" y="173.916" fill="#010101" width="1.922" height="1.922"/>
		<rect x="49.379" y="178.721" fill="#010101" width="1.922" height="1.922"/>
		<rect x="49.379" y="183.514" fill="#010101" width="1.922" height="1.922"/>
	</g>
	<path fill="none" stroke="#010101" stroke-dasharray="4" d="M88.5,126.307c6.627,0,12,5.373,12,12v46c0,6.627-5.373,12-12,12h-76
		c-6.627,0-12-5.373-12-12v-46c0-6.627,5.373-12,12-12H88.5z"/>
</g>
<g>
	<path fill="none" stroke="#010101" stroke-dasharray="4" d="M253.542,126.307c6.629,0,12,5.373,12,12v46c0,6.627-5.371,12-12,12
		h-75.999c-6.628,0-12-5.373-12-12v-46c0-6.627,5.372-12,12-12H253.542z"/>
	<g>
		<g>
			<path fill="#020202" d="M229.538,153.381h-2.832v-0.916c0-0.142-0.115-0.257-0.258-0.257s-0.256,0.115-0.256,0.257v0.916h-3.158
				v-0.916c0-0.142-0.114-0.257-0.257-0.257c-0.142,0-0.257,0.115-0.257,0.257v0.916h-3.158v-0.916c0-0.142-0.114-0.257-0.257-0.257
				c-0.142,0-0.257,0.115-0.257,0.257v0.916h-3.157v-0.916c0-0.142-0.115-0.257-0.257-0.257c-0.143,0-0.257,0.115-0.257,0.257v0.916
				h-3.157v-0.916c0-0.142-0.115-0.257-0.258-0.257c-0.142,0-0.257,0.115-0.257,0.257v0.916h-3.157v-0.916
				c0-0.142-0.115-0.257-0.258-0.257c-0.142,0-0.257,0.115-0.257,0.257v0.916h-3.157v-0.916c0-0.142-0.115-0.257-0.257-0.257
				s-0.257,0.115-0.257,0.257v0.916h-2.834c-0.425,0-0.771,0.346-0.771,0.771v23.94c0,0.425,0.346,0.771,0.771,0.771h28.209
				c0.426,0,0.771-0.346,0.771-0.771v-23.94C230.31,153.727,229.964,153.381,229.538,153.381z M208.912,161.733v3.875h-3.663v-3.875
				H208.912z M213.089,161.733v3.875h-3.663v-3.875H213.089z M217.266,161.733v3.875h-3.663v-3.875H217.266z M221.442,161.733v3.875
				h-3.662v-3.875H221.442z M225.618,161.733v3.875h-3.662v-3.875H225.618z M229.796,161.733v3.875h-3.664v-3.875H229.796z
				 M201.072,166.122h3.663v3.663h-3.663V166.122z M205.249,166.122h3.663v3.663h-3.663V166.122z M209.426,166.122h3.663v3.663
				h-3.663V166.122z M213.603,166.122h3.663v3.663h-3.663V166.122z M213.089,170.298v3.663h-3.663v-3.663H213.089z M213.603,170.298
				h3.663v3.663h-3.663V170.298z M217.78,170.298h3.662v3.663h-3.662V170.298z M217.78,169.785v-3.663h3.662v3.663H217.78z
				 M221.957,166.122h3.661v3.663h-3.661V166.122z M226.132,166.122h3.664v3.663h-3.664V166.122z M204.735,165.608h-3.663v-3.875
				h3.663V165.608z M201.072,170.298h3.663v3.663h-3.663V170.298z M205.249,170.298h3.663v3.663h-3.663V170.298z M208.912,174.475
				v3.875h-3.663v-3.875H208.912z M209.426,174.475h3.663v3.875h-3.663V174.475z M213.603,174.475h3.663v3.875h-3.663V174.475z
				 M217.78,174.475h3.662v3.875h-3.662V174.475z M221.957,174.475h3.661v3.875h-3.661V174.475z M221.957,173.961v-3.663h3.661
				v3.663H221.957z M226.132,170.298h3.664v3.663h-3.664V170.298z M201.329,153.896h2.834v0.728
				c-0.547,0.119-0.959,0.605-0.959,1.187c0,0.67,0.546,1.215,1.216,1.215s1.215-0.545,1.215-1.215c0-0.582-0.411-1.068-0.958-1.187
				v-0.728h3.157v0.728c-0.547,0.119-0.958,0.605-0.958,1.187c0,0.67,0.545,1.215,1.215,1.215s1.216-0.545,1.216-1.215
				c0-0.582-0.412-1.068-0.959-1.187v-0.728h3.158v0.728c-0.547,0.119-0.958,0.605-0.958,1.187c0,0.67,0.545,1.215,1.215,1.215
				s1.216-0.545,1.216-1.215c0-0.582-0.412-1.068-0.959-1.187v-0.728h3.157v0.728c-0.546,0.119-0.958,0.605-0.958,1.187
				c0,0.67,0.546,1.215,1.216,1.215s1.215-0.545,1.215-1.215c0-0.582-0.412-1.068-0.958-1.187v-0.728h3.157v0.728
				c-0.547,0.119-0.959,0.605-0.959,1.187c0,0.67,0.546,1.215,1.216,1.215s1.215-0.545,1.215-1.215c0-0.582-0.411-1.068-0.958-1.187
				v-0.728h3.158v0.728c-0.547,0.119-0.959,0.605-0.959,1.187c0,0.67,0.546,1.215,1.216,1.215s1.215-0.545,1.215-1.215
				c0-0.582-0.411-1.068-0.958-1.187v-0.728h3.158v0.728c-0.547,0.119-0.959,0.605-0.959,1.187c0,0.67,0.545,1.215,1.215,1.215
				s1.215-0.545,1.215-1.215c0-0.582-0.41-1.068-0.957-1.187v-0.728h2.832c0.143,0,0.258,0.115,0.258,0.257v7.067h-28.724v-7.067
				C201.072,154.011,201.188,153.896,201.329,153.896z M204.42,156.067c0.142,0,0.257-0.115,0.257-0.257v-0.651
				c0.26,0.103,0.444,0.355,0.444,0.651c0,0.387-0.314,0.702-0.701,0.702s-0.701-0.315-0.701-0.702c0-0.296,0.185-0.548,0.444-0.651
				v0.651C204.163,155.953,204.278,156.067,204.42,156.067z M208.091,156.067c0.143,0,0.258-0.115,0.258-0.257v-0.651
				c0.259,0.103,0.444,0.355,0.444,0.651c0,0.387-0.315,0.702-0.702,0.702c-0.386,0-0.701-0.315-0.701-0.702
				c0-0.296,0.185-0.548,0.444-0.651v0.651C207.834,155.953,207.949,156.067,208.091,156.067z M211.763,156.067
				c0.143,0,0.258-0.115,0.258-0.257v-0.651c0.259,0.103,0.444,0.355,0.444,0.651c0,0.387-0.315,0.702-0.702,0.702
				s-0.701-0.315-0.701-0.702c0-0.296,0.185-0.548,0.444-0.651v0.651C211.506,155.953,211.621,156.067,211.763,156.067z
				 M215.435,156.067c0.142,0,0.257-0.115,0.257-0.257v-0.651c0.26,0.103,0.444,0.355,0.444,0.651c0,0.387-0.314,0.702-0.701,0.702
				s-0.702-0.315-0.702-0.702c0-0.296,0.186-0.548,0.445-0.651v0.651C215.178,155.953,215.292,156.067,215.435,156.067z
				 M219.105,156.067c0.143,0,0.257-0.115,0.257-0.257v-0.651c0.261,0.103,0.444,0.355,0.444,0.651c0,0.387-0.314,0.702-0.701,0.702
				s-0.701-0.315-0.701-0.702c0-0.296,0.185-0.548,0.444-0.651v0.651C218.849,155.953,218.964,156.067,219.105,156.067z
				 M222.777,156.067c0.143,0,0.257-0.115,0.257-0.257v-0.651c0.261,0.103,0.444,0.355,0.444,0.651c0,0.387-0.314,0.702-0.701,0.702
				s-0.701-0.315-0.701-0.702c0-0.296,0.185-0.548,0.444-0.651v0.651C222.521,155.953,222.636,156.067,222.777,156.067z
				 M226.448,156.067c0.143,0,0.258-0.115,0.258-0.257v-0.651c0.26,0.103,0.443,0.355,0.443,0.651c0,0.387-0.314,0.702-0.701,0.702
				s-0.701-0.315-0.701-0.702c0-0.296,0.186-0.548,0.445-0.651v0.651C226.192,155.953,226.306,156.067,226.448,156.067z
				 M201.072,178.093v-3.618h3.663v3.875h-3.406C201.188,178.35,201.072,178.235,201.072,178.093z M229.538,178.35h-3.406v-3.875
				h3.664v3.618C229.796,178.235,229.681,178.35,229.538,178.35z"/>
			<path fill="#020202" d="M220.233,166.816h-1.245c-0.284,0-0.514,0.23-0.514,0.514v1.246c0,0.283,0.229,0.514,0.514,0.514h1.245
				c0.284,0,0.514-0.23,0.514-0.514v-1.246C220.747,167.047,220.518,166.816,220.233,166.816z M220.233,168.576h-1.245v-1.246h1.245
				V168.576z"/>
		</g>
		<path fill="#020202" d="M231.124,133.655c-4.217-1.406-9.811-2.18-15.748-2.18s-11.531,0.774-15.749,2.18
			c-4.475,1.492-6.939,3.582-6.939,5.884v14.624v14.624v14.624c0,2.303,2.465,4.393,6.939,5.884c4.218,1.406,9.812,2.18,15.749,2.18
			s11.531-0.774,15.748-2.18c4.475-1.492,6.939-3.582,6.939-5.884v-14.624v-14.624v-14.614c0-0.003,0-0.006,0-0.01
			C238.063,137.236,235.599,135.146,231.124,133.655z M236.558,183.41c0,3.103-8.699,6.56-21.182,6.56s-21.183-3.457-21.183-6.56
			V142.53c0.011,0.011,0.023,0.021,0.034,0.031c-0.001-0.001-0.002-0.002-0.003-0.003c1.172,1.088,2.996,2.063,5.402,2.866
			c4.218,1.406,9.812,2.18,15.749,2.18s11.531-0.774,15.748-2.18c2.41-0.803,4.234-1.78,5.408-2.87
			c-0.002,0.001-0.002,0.003-0.004,0.004c0.01-0.009,0.02-0.018,0.029-0.027V183.41L236.558,183.41z M215.376,146.098
			c-12.483,0-21.183-3.457-21.183-6.559c0-3.102,8.699-6.559,21.183-6.559c12.482,0,21.182,3.457,21.182,6.559
			C236.558,142.641,227.858,146.098,215.376,146.098z"/>
	</g>
</g>
<title>Group.svg</title>
<desc>Created using Figma 0.90</desc>
<g>
	<path fill="none" stroke="#010101" stroke-dasharray="4" d="M410.095,126.307c6.629,0,12,5.372,12,12v46c0,6.627-5.371,12-12,12
		h-76c-6.627,0-12-5.373-12-12v-46c0-6.628,5.373-12,12-12H410.095z"/>
	<g id="Canvas" transform="translate(-1640 -2453)" figma:type="canvas">
		<g id="Group_2_" figma:type="group">
			<g id="Group_1_" figma:type="group">
				<g id="Group" figma:type="group">
					<g id="g" figma:type="group">
						<g id="path" figma:type="group">
							<g id="path9_fill" figma:type="vector">
								<g>
									<path id="path0_fill" fill="#4F4F4F" d="M2022.386,2603.686c0,0.934-0.076,1.238-0.268,1.463
										c-0.213,0.192-0.492,0.299-0.779,0.299l0.074,0.534c0.447,0.006,0.879-0.151,1.219-0.443
										c0.182-0.222,0.316-0.478,0.396-0.753c0.082-0.275,0.105-0.564,0.072-0.85v-3.535h-0.715v3.263V2603.686z"/>
								</g>
							</g>
						</g>
						<g id="path_1_" figma:type="group">
							<g id="path10_fill" figma:type="vector">
								<g>
									<path id="path1_fill" fill="#4F4F4F" d="M2027.724,2603.264c0,0.4,0,0.759,0.031,1.068h-0.635l-0.043-0.636
										c-0.133,0.225-0.324,0.411-0.551,0.538c-0.229,0.127-0.486,0.192-0.748,0.188c-0.619,0-1.355-0.336-1.355-1.709v-2.28
										h0.715v2.136c0,0.743,0.23,1.24,0.877,1.24c0.133,0.001,0.264-0.023,0.387-0.074s0.236-0.124,0.33-0.219
										c0.094-0.094,0.168-0.205,0.219-0.328c0.049-0.123,0.074-0.256,0.072-0.389v-2.393h0.717v2.836L2027.724,2603.264z"/>
								</g>
							</g>
						</g>
						<g id="path_2_" figma:type="group">
							<g id="path11_fill" figma:type="vector">
								<g>
									<path id="path2_fill" fill="#4F4F4F" d="M2029.079,2601.704c0-0.496,0-0.902-0.031-1.271h0.641l0.031,0.668
										c0.145-0.241,0.35-0.439,0.596-0.572c0.246-0.134,0.525-0.198,0.805-0.186c0.951,0,1.666,0.795,1.666,1.98
										c0,1.4-0.859,2.094-1.789,2.094c-0.238,0.012-0.475-0.039-0.688-0.147c-0.211-0.107-0.393-0.269-0.525-0.466l0,0v2.137
										h-0.705v-4.22V2601.704z M2029.784,2602.745c0.002,0.098,0.014,0.194,0.033,0.289c0.061,0.237,0.197,0.447,0.391,0.598
										c0.193,0.149,0.432,0.231,0.678,0.23c0.752,0,1.195-0.614,1.195-1.506c0-0.78-0.416-1.447-1.17-1.447
										c-0.297,0.023-0.576,0.156-0.783,0.371c-0.209,0.215-0.33,0.499-0.344,0.798V2602.745z"/>
								</g>
							</g>
						</g>
						<g id="path_3_" figma:type="group">
							<g id="path12_fill" figma:type="vector">
								<g>
									<path id="path3_fill" fill="#4F4F4F" d="M2034.062,2600.429l0.861,2.302c0.09,0.257,0.186,0.566,0.25,0.796
										c0.074-0.235,0.154-0.534,0.25-0.812l0.781-2.286h0.752l-1.066,2.777c-0.535,1.336-0.861,2.024-1.352,2.44
										c-0.248,0.227-0.551,0.385-0.877,0.46l-0.176-0.598c0.229-0.075,0.439-0.193,0.625-0.348
										c0.26-0.213,0.467-0.483,0.604-0.79c0.029-0.054,0.049-0.111,0.059-0.172c-0.006-0.064-0.023-0.127-0.049-0.187
										l-1.453-3.595h0.781L2034.062,2600.429z"/>
								</g>
							</g>
						</g>
						<g id="path_4_" figma:type="group">
							<g id="path13_fill" figma:type="vector">
								<g>
									<path id="path4_fill" fill="#4F4F4F" d="M2038.856,2599.309v1.121h1.025v0.534h-1.025v2.104
										c0,0.48,0.139,0.759,0.535,0.759c0.141,0.002,0.279-0.015,0.416-0.048l0.033,0.534c-0.205,0.07-0.42,0.103-0.637,0.096
										c-0.143,0.009-0.287-0.014-0.42-0.065s-0.254-0.131-0.355-0.233c-0.217-0.292-0.316-0.654-0.277-1.016v-2.136h-0.609
										v-0.535h0.621v-0.95L2038.856,2599.309z"/>
								</g>
							</g>
						</g>
						<g id="path_5_" figma:type="group">
							<g id="path14_fill" figma:type="vector">
								<g>
									<path id="path5_fill" fill="#4F4F4F" d="M2041.2,2602.506c-0.014,0.18,0.012,0.363,0.074,0.533s0.162,0.325,0.291,0.454
										c0.127,0.128,0.283,0.228,0.453,0.29s0.354,0.088,0.533,0.073c0.367,0.008,0.73-0.062,1.068-0.203l0.123,0.534
										c-0.414,0.171-0.859,0.253-1.309,0.24c-0.262,0.018-0.523-0.021-0.768-0.113s-0.467-0.238-0.65-0.425
										s-0.326-0.411-0.414-0.657s-0.123-0.509-0.102-0.77c0-1.176,0.699-2.105,1.844-2.105c1.281,0,1.602,1.122,1.602,1.838
										c0.006,0.11,0.006,0.221,0,0.331h-2.762L2041.2,2602.506z M2043.294,2601.971c0.021-0.143,0.012-0.288-0.029-0.427
										s-0.109-0.267-0.205-0.376c-0.094-0.109-0.209-0.197-0.34-0.258c-0.133-0.061-0.273-0.092-0.418-0.093
										c-0.293,0.021-0.568,0.151-0.771,0.364c-0.203,0.214-0.318,0.495-0.324,0.789H2043.294z"/>
								</g>
							</g>
						</g>
						<g id="path_6_" figma:type="group">
							<g id="path15_fill" figma:type="vector">
								<g>
									<path id="path6_fill" fill="#4F4F4F" d="M2045.032,2601.643c0-0.459,0-0.854-0.031-1.217h0.641v0.764h0.031
										c0.068-0.236,0.207-0.445,0.398-0.598c0.191-0.154,0.426-0.243,0.67-0.258c0.066-0.008,0.137-0.008,0.203,0v0.668
										c-0.082-0.01-0.164-0.01-0.246,0c-0.242,0.01-0.473,0.107-0.648,0.273c-0.176,0.168-0.285,0.393-0.307,0.635
										c-0.021,0.109-0.031,0.221-0.033,0.331v2.078h-0.705v-2.671L2045.032,2601.643z"/>
								</g>
							</g>
						</g>
					</g>
				</g>
				<g id="g_1_" figma:type="group">
					<g id="path_7_" figma:type="group">
						<g id="path16_fill" figma:type="vector">
							<g>
								<path id="path7_fill" fill="#777677" d="M2044.718,2589.701c0.023,0.358-0.063,0.716-0.244,1.026s-0.451,0.559-0.775,0.715
									s-0.688,0.213-1.043,0.162s-0.688-0.207-0.955-0.447s-0.457-0.556-0.545-0.904s-0.07-0.715,0.053-1.054
									c0.121-0.338,0.34-0.632,0.631-0.846c0.289-0.213,0.635-0.335,0.994-0.351c0.234-0.014,0.471,0.021,0.693,0.1
									c0.223,0.078,0.428,0.199,0.602,0.357c0.176,0.158,0.318,0.35,0.42,0.563S2044.706,2589.465,2044.718,2589.701
									L2044.718,2589.701z"/>
							</g>
						</g>
					</g>
					<g id="path_8_" figma:type="group">
						<g id="path17_fill" figma:type="vector">
							<g>
								<path id="path8_fill" fill="#F37826" d="M2034.157,2610.619c-4.807,0-9.033-1.726-11.217-4.273
									c0.848,2.292,2.377,4.271,4.383,5.666c2.004,1.397,4.391,2.146,6.834,2.146s4.828-0.748,6.834-2.146
									c2.006-1.396,3.535-3.374,4.383-5.666C2043.194,2608.893,2038.985,2610.619,2034.157,2610.619z"/>
							</g>
						</g>
					</g>
					<g id="path_9_" figma:type="group">
						<g id="path18_fill" figma:type="vector">
							<g>
								<path id="path9_fill_1_" fill="#F37826" d="M2034.157,2594.051c4.807,0,9.031,1.725,11.217,4.273
									c-0.848-2.293-2.377-4.27-4.383-5.666s-4.391-2.146-6.834-2.146s-4.83,0.749-6.834,2.146
									c-2.006,1.396-3.535,3.373-4.383,5.666C2025.124,2595.772,2029.329,2594.051,2034.157,2594.051z"/>
							</g>
						</g>
					</g>
					<g id="path_10_" figma:type="group">
						<g id="path19_fill" figma:type="vector">
							<g>
								<path id="path10_fill_1_" fill="#9D9E9D" d="M2027.54,2615.577c0.027,0.452-0.08,0.902-0.309,1.294
									c-0.229,0.39-0.568,0.704-0.975,0.901c-0.408,0.197-0.865,0.269-1.314,0.205c-0.447-0.064-0.867-0.26-1.205-0.563
									c-0.336-0.303-0.574-0.698-0.686-1.138s-0.088-0.9,0.064-1.327s0.43-0.798,0.793-1.066c0.365-0.269,0.801-0.423,1.254-0.442
									c0.297-0.017,0.592,0.026,0.873,0.125c0.279,0.099,0.537,0.252,0.758,0.45s0.4,0.438,0.527,0.706
									C2027.45,2614.99,2027.524,2615.28,2027.54,2615.577L2027.54,2615.577z"/>
							</g>
						</g>
					</g>
					<g id="path_11_" figma:type="group">
						<g id="path20_fill" figma:type="vector">
							<g>
								<path id="path11_fill_1_" fill="#626363" d="M2023.487,2593.471c-0.26,0.007-0.516-0.063-0.734-0.2
									c-0.221-0.138-0.395-0.337-0.5-0.573c-0.107-0.236-0.141-0.499-0.1-0.754c0.043-0.256,0.16-0.494,0.336-0.684
									c0.178-0.189,0.406-0.322,0.658-0.382s0.518-0.043,0.76,0.047c0.242,0.091,0.453,0.25,0.605,0.46
									c0.152,0.209,0.24,0.459,0.25,0.719c0.01,0.35-0.117,0.689-0.357,0.945
									C2024.167,2593.305,2023.837,2593.458,2023.487,2593.471z"/>
							</g>
						</g>
					</g>
				</g>
			</g>
		</g>
	</g>
	<g>
		
			<sodipodi:namedview  inkscape:window-y="0" inkscape:current-layer="svg2" id="base" inkscape:window-height="543" inkscape:zoom="1.4340089" inkscape:cy="71.887497" pagecolor="#ffffff" inkscape:pageopacity="0.0" inkscape:window-width="791" inkscape:pageshadow="2" inkscape:window-x="0" borderopacity="1.0" bordercolor="#666666" inkscape:cx="243.02499">
			</sodipodi:namedview>
		<g id="g2303">
			<path id="path46" fill="#656565" d="M365.646,179.129c0-2.147-0.611-3.25-1.836-3.31c-0.488-0.023-0.963,0.055-1.426,0.233
				c-0.369,0.133-0.617,0.263-0.748,0.396v5.124c0.783,0.492,1.479,0.721,2.084,0.685
				C365.003,182.172,365.646,181.13,365.646,179.129z M367.155,179.218c0,1.09-0.254,1.996-0.77,2.716
				c-0.572,0.814-1.367,1.234-2.385,1.258c-0.766,0.024-1.555-0.216-2.365-0.719v4.657l-1.314-0.469v-10.338
				c0.217-0.264,0.492-0.492,0.83-0.685c0.781-0.454,1.73-0.689,2.85-0.7l0.018,0.018c1.023-0.012,1.811,0.407,2.363,1.258
				C366.897,176.996,367.155,177.995,367.155,179.218z"/>
			<path id="path48" fill="#656565" d="M375.183,182.274c0,1.463-0.146,2.477-0.439,3.04c-0.295,0.563-0.855,1.014-1.682,1.348
				c-0.672,0.264-1.396,0.408-2.176,0.433l-0.217-0.828c0.791-0.107,1.35-0.216,1.672-0.323c0.637-0.216,1.074-0.545,1.314-0.988
				c0.191-0.36,0.287-1.049,0.287-2.068v-0.342c-0.898,0.408-1.84,0.611-2.824,0.611c-0.646,0-1.217-0.203-1.709-0.611
				c-0.553-0.443-0.828-1.007-0.828-1.689v-5.467l1.314-0.449v5.502c0,0.588,0.189,1.04,0.568,1.357
				c0.379,0.318,0.871,0.47,1.473,0.459c0.604-0.014,1.248-0.246,1.934-0.701v-6.419h1.313V182.274z"/>
			<path id="path50" fill="#656565" d="M380.31,183.12c-0.156,0.013-0.299,0.019-0.432,0.019c-0.742,0-1.322-0.178-1.736-0.531
				c-0.412-0.355-0.619-0.846-0.619-1.471v-5.173h-0.9v-0.826h0.9v-2.194l1.313-0.468v2.662h1.475v0.826h-1.475v5.137
				c0,0.493,0.133,0.842,0.396,1.047c0.227,0.168,0.588,0.264,1.078,0.288V183.12z"/>
			<path id="path52" fill="#656565" d="M388.263,183.012h-1.313v-5.07c0-0.516-0.121-0.96-0.361-1.331
				c-0.277-0.419-0.662-0.629-1.156-0.629c-0.602,0-1.355,0.317-2.26,0.953v6.077h-1.314v-12.119l1.314-0.414v5.52
				c0.84-0.61,1.756-0.916,2.752-0.916c0.695,0,1.258,0.234,1.689,0.7c0.434,0.468,0.648,1.05,0.648,1.745V183.012L388.263,183.012z
				"/>
			<path id="path54" fill="#656565" d="M395.243,178.921c0-0.824-0.156-1.505-0.467-2.045c-0.371-0.656-0.949-1.002-1.727-1.039
				c-1.439,0.084-2.158,1.115-2.158,3.094c0,0.906,0.148,1.663,0.451,2.271c0.385,0.773,0.963,1.156,1.732,1.144
				C394.521,182.335,395.243,181.194,395.243,178.921z M396.683,178.931c0,1.174-0.301,2.15-0.9,2.931
				c-0.658,0.874-1.57,1.312-2.732,1.312c-1.152,0-2.051-0.438-2.699-1.312c-0.588-0.78-0.881-1.757-0.881-2.931
				c0-1.104,0.318-2.033,0.953-2.788c0.67-0.802,1.553-1.204,2.645-1.204c1.09,0,1.979,0.402,2.662,1.204
				C396.364,176.898,396.683,177.827,396.683,178.931z"/>
			<path id="path56" fill="#656565" d="M404.212,183.012h-1.313v-5.357c0-0.588-0.178-1.047-0.531-1.377
				c-0.354-0.329-0.824-0.488-1.412-0.476c-0.623,0.012-1.217,0.216-1.781,0.61v6.6h-1.313v-6.762
				c0.756-0.551,1.451-0.909,2.086-1.078c0.6-0.156,1.129-0.233,1.584-0.233c0.313,0,0.605,0.03,0.881,0.09
				c0.516,0.119,0.936,0.341,1.26,0.665c0.359,0.359,0.539,0.791,0.539,1.296V183.012z"/>
			
				<linearGradient id="path1948_1_" gradientUnits="userSpaceOnUse" x1="634.8877" y1="354.9253" x2="650.9601" y2="341.0972" gradientTransform="matrix(0.5625 0 0 -0.568 -18.2994 373.0011)">
				<stop  offset="0" style="stop-color:#5C9FD3"/>
				<stop  offset="1" style="stop-color:#316A99"/>
			</linearGradient>
			<path id="path1948" fill="url(#path1948_1_)" d="M347.349,170.942c-0.676,0.003-1.32,0.061-1.889,0.161
				c-1.672,0.296-1.977,0.914-1.977,2.055v1.507h3.953v0.502h-3.953h-1.482c-1.148,0-2.156,0.691-2.471,2.004
				c-0.361,1.506-0.379,2.445,0,4.018c0.281,1.171,0.953,2.005,2.102,2.005h1.359v-1.807c0-1.305,1.129-2.455,2.469-2.455h3.949
				c1.098,0,1.977-0.906,1.977-2.009v-3.765c0-1.071-0.904-1.876-1.977-2.055C348.729,170.991,348.024,170.939,347.349,170.942z
				 M345.212,172.154c0.408,0,0.742,0.339,0.742,0.755s-0.334,0.752-0.742,0.752c-0.41,0-0.742-0.336-0.742-0.752
				S344.802,172.154,345.212,172.154z"/>
			
				<linearGradient id="path1950_1_" gradientUnits="userSpaceOnUse" x1="657.1729" y1="332.7285" x2="651.4337" y2="340.8485" gradientTransform="matrix(0.5625 0 0 -0.568 -18.2994 373.0011)">
				<stop  offset="0" style="stop-color:#FFD43D"/>
				<stop  offset="1" style="stop-color:#FEE874"/>
			</linearGradient>
			<path id="path1950" fill="url(#path1950_1_)" d="M351.878,175.167v1.756c0,1.36-1.154,2.506-2.469,2.506h-3.949
				c-1.08,0-1.977,0.926-1.977,2.009v3.765c0,1.071,0.932,1.701,1.977,2.008c1.252,0.368,2.451,0.435,3.949,0
				c0.994-0.288,1.977-0.868,1.977-2.008v-1.507h-3.949v-0.502h3.949h1.977c1.148,0,1.576-0.802,1.977-2.005
				c0.412-1.238,0.395-2.429,0-4.018c-0.285-1.144-0.826-2.004-1.977-2.004H351.878z M349.657,184.699
				c0.41,0,0.742,0.336,0.742,0.751c0,0.417-0.332,0.756-0.742,0.756c-0.408,0-0.742-0.339-0.742-0.756
				C348.915,185.035,349.249,184.699,349.657,184.699z"/>
			<path id="text3004" fill="#656565" d="M406.771,173.966h0.23v-1.444h0.545v-0.173h-1.32v0.173h0.545V173.966 M407.751,173.966
				h0.195v-1.319l0.428,1.318h0.219l0.445-1.314v1.315h0.215v-1.617h-0.283l-0.486,1.385l-0.416-1.385h-0.316V173.966"/>
			
				<radialGradient id="path1894_1_" cx="-380.9541" cy="323.5625" r="4.2812" gradientTransform="matrix(1.749057e-008 -0.2399 -1.0547 -3.791546e-007 688.7324 98.36)" gradientUnits="userSpaceOnUse">
				<stop  offset="0" style="stop-color:#B9B8B9"/>
				<stop  offset="1" style="stop-color:#817F7F"/>
			</radialGradient>
			<path id="path1894" opacity="0.4438" fill="url(#path1894_1_)" enable-background="new    " d="M352.778,189.769
				c0,0.567-2.371,1.026-5.297,1.026s-5.297-0.459-5.297-1.026s2.371-1.028,5.297-1.028S352.778,189.202,352.778,189.769z"/>
		</g>
	</g>
</g>
<g>
	<g>
		<g>
			<g>
				<path fill="#010101" d="M530.057,174.051h-7.778c-0.243,0-0.439-0.197-0.439-0.439c0-0.243,0.196-0.439,0.439-0.439h7.778
					c1.769,0,3.208-1.439,3.208-3.208v-13.799c0-1.77-1.439-3.208-3.208-3.208h-33.135c-1.77,0-3.209,1.438-3.209,3.208v13.799
					c0,1.769,1.439,3.208,3.209,3.208h7.778c0.242,0,0.439,0.196,0.439,0.439c0,0.242-0.197,0.439-0.439,0.439h-7.778
					c-2.254,0-4.088-1.834-4.088-4.087v-13.799c0-2.254,1.834-4.087,4.088-4.087h33.135c2.253,0,4.087,1.833,4.087,4.087v13.799
					C534.144,172.217,532.31,174.051,530.057,174.051z"/>
			</g>
			<g>
				<path fill="#010101" d="M522.278,152.958H504.7c-0.243,0-0.439-0.197-0.439-0.439v-11.426c0-0.243,0.196-0.439,0.439-0.439
					h17.578c0.242,0,0.439,0.196,0.439,0.439v11.426C522.718,152.76,522.521,152.958,522.278,152.958z M505.14,152.079h16.699
					v-10.547H505.14V152.079z"/>
			</g>
			<g>
				<path fill="#010101" d="M522.278,181.961H504.7c-0.243,0-0.439-0.197-0.439-0.439v-12.305c0-0.243,0.196-0.439,0.439-0.439
					h17.578c0.242,0,0.439,0.196,0.439,0.439v12.305C522.718,181.764,522.521,181.961,522.278,181.961z M505.14,181.083h16.699
					v-11.426H505.14V181.083z"/>
			</g>
			<g>
				<path fill="#010101" d="M525.794,152.958h-3.516c-0.243,0-0.439-0.197-0.439-0.439v-7.031c0-0.243,0.196-0.439,0.439-0.439
					h3.516c0.242,0,0.439,0.196,0.439,0.439v7.031C526.233,152.76,526.036,152.958,525.794,152.958z M522.718,152.079h2.637v-6.152
					h-2.637V152.079z"/>
			</g>
			<g>
				<path fill="#010101" d="M504.7,152.958h-3.516c-0.243,0-0.439-0.197-0.439-0.439v-7.031c0-0.243,0.196-0.439,0.439-0.439h3.516
					c0.242,0,0.439,0.196,0.439,0.439v7.031C505.14,152.76,504.942,152.958,504.7,152.958z M501.624,152.079h2.637v-6.152h-2.637
					V152.079z"/>
			</g>
			<g>
				<path fill="#010101" d="M524.915,169.657h-22.852c-0.243,0-0.439-0.197-0.439-0.439c0-0.243,0.196-0.439,0.439-0.439h22.852
					c0.242,0,0.439,0.196,0.439,0.439C525.354,169.459,525.157,169.657,524.915,169.657z"/>
			</g>
			<g>
				<path fill="#010101" d="M517.884,178.446h-8.789c-0.243,0-0.439-0.197-0.439-0.439c0-0.243,0.196-0.439,0.439-0.439h8.789
					c0.242,0,0.439,0.196,0.439,0.439C518.323,178.249,518.126,178.446,517.884,178.446z"/>
			</g>
			<g>
				<path fill="#010101" d="M517.884,174.93h-8.789c-0.243,0-0.439-0.197-0.439-0.439c0-0.243,0.196-0.439,0.439-0.439h8.789
					c0.242,0,0.439,0.196,0.439,0.439C518.323,174.733,518.126,174.93,517.884,174.93z"/>
			</g>
			<g>
				<path fill="#010101" d="M500.306,160.868c-1.212,0-2.197-0.985-2.197-2.197s0.985-2.197,2.197-2.197
					c1.211,0,2.197,0.985,2.197,2.197S501.517,160.868,500.306,160.868z M500.306,157.352c-0.728,0-1.318,0.592-1.318,1.318
					s0.591,1.318,1.318,1.318c0.727,0,1.318-0.592,1.318-1.318S501.032,157.352,500.306,157.352z"/>
			</g>
			<g>
				<path fill="#010101" d="M507.337,160.868c-1.212,0-2.197-0.985-2.197-2.197s0.985-2.197,2.197-2.197
					c1.211,0,2.197,0.985,2.197,2.197S508.548,160.868,507.337,160.868z M507.337,157.352c-0.728,0-1.318,0.592-1.318,1.318
					s0.591,1.318,1.318,1.318c0.727,0,1.318-0.592,1.318-1.318S508.063,157.352,507.337,157.352z"/>
			</g>
			<g>
				<path fill="#010101" d="M533.704,164.383h-40.431c-0.242,0-0.439-0.197-0.439-0.439c0-0.243,0.197-0.439,0.439-0.439h40.431
					c0.242,0,0.439,0.196,0.439,0.439C534.144,164.186,533.946,164.383,533.704,164.383z"/>
			</g>
		</g>
	</g>
</g>
<g>
	<path fill="#010101" d="M300.77,141.756c0.388,0,0.703-0.315,0.703-0.703V130.61c0-0.388-0.315-0.703-0.703-0.703h-10.442
		c-0.389,0-0.703,0.315-0.703,0.703v10.443c0,0.388,0.314,0.703,0.703,0.703l0,0H300.77L300.77,141.756z M293.657,130.845h6.878
		v1.227h-6.878V130.845z M293.657,133.009h6.878v1.212h-6.878V133.009z M293.657,135.159h6.878v1.318h-6.878V135.159z
		 M293.657,137.416h6.878v1.212h-6.878V137.416z M293.657,139.565h6.878v1.253h-6.878V139.565z M290.562,130.845h2.158v1.227h-2.158
		V130.845z M290.562,133.009h2.158v1.212h-2.158V133.009z M290.562,135.159h2.158v1.318h-2.158V135.159z M290.562,137.416h2.158
		v1.212h-2.158V137.416z M290.562,139.565h2.158v1.253h-2.158V139.565z"/>
	<path fill="#010101" d="M286.968,118.967c-1.256,0-2.278,1.019-2.278,2.272v25.014c0,1.253,1.022,2.272,2.278,2.272h17.043
		c1.258,0,2.279-1.019,2.279-2.272V127.36c0-0.147-0.057-0.288-0.16-0.394l-7.529-7.825c-0.107-0.111-0.256-0.174-0.41-0.174
		H286.968z M286.968,120.104h10.227v7.39c0,0.314,0.255,0.568,0.568,0.568h7.391v18.191c0,0.626-0.512,1.135-1.141,1.135h-17.045
		c-0.63,0-1.142-0.509-1.142-1.135v-25.014C285.826,120.613,286.338,120.104,286.968,120.104z M298.331,120.501l6.182,6.423h-6.182
		V120.501L298.331,120.501z"/>
</g>
<path fill="#010101" d="M450.916,118.967c-1.256,0-2.277,1.02-2.277,2.272v25.014c0,1.253,1.021,2.272,2.277,2.272h17.044
	c1.257,0,2.278-1.02,2.278-2.272V127.36c0-0.147-0.057-0.288-0.159-0.395l-7.53-7.824c-0.107-0.111-0.255-0.175-0.409-0.175H450.916
	z M450.916,120.104h10.228v7.39c0,0.314,0.255,0.568,0.568,0.568h7.39v18.191c0,0.626-0.512,1.136-1.141,1.136h-17.045
	c-0.629,0-1.141-0.51-1.141-1.136v-25.014C449.775,120.613,450.287,120.104,450.916,120.104z M462.28,120.502l6.182,6.423h-6.182
	V120.502L462.28,120.502z M459.207,127.45c-0.141-0.002-0.299,0.016-0.475,0.061c-0.445,0.111-1.162,0.546-0.958,2.208
	c0.091,0.734,0.359,1.67,0.758,2.677c-0.214,0.671-0.452,1.373-0.688,2.063c-0.221,0.649-0.449,1.321-0.653,1.955l0,0
	c-0.163,0.509-0.313,0.989-0.454,1.443c-0.197,0.637-0.377,1.213-0.553,1.735c-3.04,1.726-4.254,3.221-4.328,4.14
	c-0.03,0.374,0.116,0.698,0.4,0.891c0.143,0.097,0.348,0.179,0.633,0.179c0.286,0,0.653-0.083,1.118-0.315
	c1.641-0.82,2.415-2.177,3.106-4.109c0.583-0.319,1.245-0.653,1.994-0.999c1.181-0.545,2.188-0.882,3.032-1.08
	c0.978,1.027,2.012,1.701,2.981,1.701c1.056,0,1.8-0.349,2.043-0.957c0.179-0.448,0.042-0.946-0.365-1.333
	c-0.579-0.549-1.609-0.83-2.897-0.794c-0.429,0.013-0.881,0.062-1.354,0.145c-1.071-1.286-2.111-3.071-2.811-4.715
	c0.717-2.312,0.979-3.821,0.325-4.53C459.9,127.637,459.63,127.455,459.207,127.45L459.207,127.45z M459.199,128.586
	c0.019,0,0.028,0.001,0.029,0c0.021,0.024,0.228,0.328-0.146,1.893c-0.085-0.322-0.146-0.625-0.18-0.898
	c-0.084-0.683,0.036-0.95,0.104-0.967C459.104,128.589,459.166,128.586,459.199,128.586L459.199,128.586z M459.221,133.94
	c0.587,1.19,1.312,2.388,2.1,3.4c-0.855,0.239-1.76,0.576-2.688,1.005c-0.351,0.162-0.687,0.323-1.006,0.482
	c0.064-0.206,0.13-0.417,0.197-0.633c0.141-0.451,0.289-0.929,0.451-1.434l0,0c0.2-0.624,0.428-1.291,0.647-1.937
	C459.025,134.521,459.125,134.226,459.221,133.94z M463.99,138.051c1.021-0.017,1.577,0.212,1.748,0.297
	c0.242,0.121,0.335,0.238,0.36,0.286c-0.062,0.066-0.325,0.229-0.976,0.229c-0.484,0-1.032-0.296-1.599-0.788
	C463.689,138.061,463.845,138.054,463.99,138.051z M455.487,141.354c-0.481,0.977-1.065,1.654-1.987,2.116
	c-0.203,0.101-0.353,0.15-0.457,0.174C453.217,143.261,453.854,142.44,455.487,141.354z"/>
<g>
	<g>
		<line fill="none" stroke="#000000" stroke-width="2" x1="50.5" y1="61.384" x2="50.5" y2="108.718"/>
		<path d="M50.5,107.698l3.603-2.19l0.082,0.123l-2.333,5.875c-0.45,2.047-0.9,4.094-1.351,6.141c-0.45-2.047-0.9-4.094-1.351-6.141
			l-2.333-5.875l0.062-0.123L50.5,107.698z"/>
	</g>
</g>
<g>
	<g>
		<line fill="none" stroke="#000000" stroke-width="2" x1="111.99" y1="161.307" x2="145.324" y2="161.307"/>
		<path d="M144.304,161.307l-2.19-3.603l0.123-0.082l5.875,2.333c2.047,0.45,4.094,0.9,6.141,1.351
			c-2.047,0.45-4.094,0.9-6.141,1.351l-5.875,2.333l-0.123-0.062L144.304,161.307z"/>
	</g>
</g>
<g>
	<g>
		<line fill="none" stroke="#000000" stroke-width="2" x1="332.324" y1="27.432" x2="412.991" y2="27.432"/>
		<path d="M411.971,27.432l-2.189-3.603l0.122-0.082l5.875,2.333c2.047,0.45,4.095,0.9,6.142,1.351
			c-2.047,0.45-4.095,0.9-6.142,1.351l-5.875,2.333l-0.122-0.062L411.971,27.432z"/>
	</g>
</g>
<g>
	<g>
		<line fill="none" stroke="#000000" stroke-width="2" x1="275.657" y1="161.307" x2="308.991" y2="161.307"/>
		<path d="M307.971,161.307l-2.189-3.603l0.122-0.082l5.875,2.333c2.047,0.45,4.095,0.9,6.142,1.351
			c-2.047,0.45-4.095,0.9-6.142,1.351l-5.875,2.333l-0.122-0.062L307.971,161.307z"/>
	</g>
</g>
<g>
	<g>
		<line fill="none" stroke="#000000" stroke-width="2" x1="437.656" y1="161.307" x2="470.991" y2="161.307"/>
		<path d="M469.971,161.307l-2.189-3.603l0.122-0.082l5.875,2.333c2.047,0.45,4.095,0.9,6.142,1.351
			c-2.047,0.45-4.095,0.9-6.142,1.351l-5.875,2.333l-0.122-0.062L469.971,161.307z"/>
	</g>
</g>
<g>
	<g>
		<line fill="none" stroke="#000000" stroke-width="2" x1="92.658" y1="27.519" x2="173.325" y2="27.519"/>
		<path d="M172.305,27.519l-2.19-3.603l0.123-0.082l5.875,2.333c2.047,0.45,4.094,0.9,6.141,1.351
			c-2.047,0.45-4.094,0.9-6.141,1.351l-5.875,2.333l-0.123-0.062L172.305,27.519z"/>
	</g>
</g>
<g>
	<g>
		<line fill="none" stroke="#000000" stroke-width="2" x1="100.878" y1="120.767" x2="221.346" y2="61.331"/>
		<path d="M220.432,61.782l-3.559-2.262l0.074-0.127l6.301-0.507c2.035-0.502,4.07-1.004,6.105-1.505
			c-1.637,1.309-3.273,2.619-4.91,3.929l-4.236,4.692L220.07,66L220.432,61.782z"/>
	</g>
</g>
<g>
	<g>
		<line fill="none" stroke="#000000" stroke-width="2" x1="512.731" y1="126.172" x2="495.616" y2="82.041"/>
		<path d="M495.985,82.992l-2.567,3.345l-0.12-0.084l0.051-6.321c-0.32-2.071-0.641-4.143-0.961-6.214
			c1.16,1.746,2.32,3.492,3.48,5.237l4.3,4.634l-0.013,0.136L495.985,82.992z"/>
	</g>
</g>
</svg>
